<svg version="1.1" xmlns="http://www.w3.org/2000/svg" viewBox="0 0 251.21034014491838 136.1056253541581" width="251.21034014491838" height="136.1056253541581" class="excalidraw-svg">
  <!-- svg-source:excalidraw -->
  
  <defs>
    <style class="style-fonts">
      @font-face {
        font-family: "Virgil";
        src: url("https://excalidraw.com/Virgil.woff2");
      }
      @font-face {
        font-family: "Cascadia";
        src: url("https://excalidraw.com/Cascadia.woff2");
      }
      @font-face {
        font-family: "Assistant";
        src: url("https://excalidraw.com/Assistant-Regular.woff2");
      }
    </style>
    
  </defs>
  <rect x="0" y="0" width="251.21034014491838" height="136.1056253541581" fill="#000000"/><g transform="translate(10 63.04825986008953) rotate(0 28.525951056840583 -2.502276408494822)" stroke="none"><path fill="#FFFFFF" d="M 0,-1.92 Q 0,-1.92 3.16,-2.54 6.33,-3.17 9.11,-3.22 11.89,-3.27 14.80,-3.30 17.71,-3.33 20.51,-3.63 23.31,-3.93 26.39,-4.07 29.47,-4.20 32.04,-4.53 34.61,-4.86 37.13,-5.28 39.65,-5.71 41.83,-6.16 44.02,-6.61 45.76,-7.04 47.50,-7.47 49.36,-7.67 51.22,-7.88 53.11,-7.87 55.01,-7.86 55.55,-5.68 56.09,-3.49 56.25,-3.48 56.41,-3.47 56.56,-3.42 56.71,-3.37 56.84,-3.29 56.98,-3.21 57.09,-3.10 57.20,-2.98 57.28,-2.85 57.36,-2.71 57.41,-2.56 57.45,-2.41 57.46,-2.25 57.47,-2.09 57.44,-1.94 57.41,-1.78 57.34,-1.64 57.28,-1.49 57.18,-1.37 57.08,-1.25 56.96,-1.15 56.83,-1.05 56.69,-0.99 56.54,-0.92 56.39,-0.90 56.23,-0.87 56.61,-1.02 57.00,-1.17 56.81,-1.06 56.63,-0.96 56.42,-0.91 56.22,-0.87 56.00,-0.89 55.79,-0.92 55.60,-1.01 55.41,-1.10 55.26,-1.25 55.10,-1.40 55.01,-1.59 54.91,-1.78 54.88,-1.99 54.85,-2.20 54.88,-2.41 54.92,-2.62 55.02,-2.80 55.12,-2.99 55.28,-3.13 55.44,-3.28 55.63,-3.36 55.82,-3.45 56.04,-3.47 56.25,-3.49 56.45,-3.44 56.66,-3.40 56.84,-3.28 57.02,-3.17 57.16,-3.01 57.29,-2.84 57.37,-2.65 57.45,-2.45 57.45,-2.24 57.46,-2.02 57.40,-1.82 57.35,-1.62 57.22,-1.44 57.10,-1.27 56.93,-1.14 56.76,-1.01 56.56,-0.95 56.36,-0.88 56.14,-0.89 55.93,-0.89 55.73,-0.96 55.53,-1.03 55.36,-1.16 55.20,-1.29 55.08,-1.47 54.96,-1.64 54.91,-1.85 54.85,-2.06 54.87,-2.27 54.88,-2.48 54.96,-2.68 55.04,-2.87 55.57,-3.18 56.09,-3.49 56.25,-3.48 56.41,-3.47 56.56,-3.42 56.71,-3.38 56.84,-3.29 56.98,-3.21 57.09,-3.10 57.20,-2.98 57.28,-2.85 57.36,-2.71 57.41,-2.56 57.45,-2.41 57.46,-2.25 57.47,-2.09 57.44,-1.94 57.41,-1.78 57.35,-1.64 57.28,-1.49 57.18,-1.37 57.08,-1.25 56.96,-1.15 56.83,-1.05 56.69,-0.99 56.54,-0.92 56.39,-0.90 56.23,-0.87 55.61,-1.45 55.00,-2.02 53.51,-1.77 52.03,-1.51 50.62,-1.30 49.20,-1.08 47.30,-0.54 45.40,-0.00 43.08,0.48 40.77,0.98 38.11,1.42 35.45,1.86 32.60,2.21 29.75,2.56 26.86,2.67 23.97,2.78 20.84,3.06 17.72,3.33 14.80,3.30 11.89,3.27 9.11,3.22 6.33,3.17 3.16,2.54 0,1.92 -0.22,1.89 -0.45,1.86 -0.67,1.78 -0.89,1.70 -1.08,1.56 -1.27,1.43 -1.42,1.26 -1.58,1.09 -1.68,0.88 -1.79,0.68 -1.85,0.45 -1.90,0.23 -1.90,-0.00 -1.90,-0.23 -1.85,-0.45 -1.79,-0.68 -1.68,-0.88 -1.58,-1.09 -1.42,-1.26 -1.27,-1.43 -1.08,-1.56 -0.89,-1.70 -0.67,-1.78 -0.45,-1.86 -0.22,-1.89 0.00,-1.92 0.00,-1.92 L 0,-1.92 Z"/></g><g transform="translate(50.036422535916614 59.04461760649784) rotate(0 -5.505008098688535 25.02276408494788)" stroke="none"><path fill="#FFFFFF" d="M 1.38,0.30 Q 1.38,0.30 1.53,3.05 1.67,5.80 1.51,7.90 1.35,10.00 0.98,12.49 0.62,14.97 0.19,17.46 -0.22,19.96 -0.69,22.21 -1.16,24.46 -1.64,26.82 -2.12,29.17 -2.62,31.37 -3.12,33.56 -3.62,35.65 -4.12,37.73 -4.66,39.33 -5.20,40.93 -5.70,42.41 -6.20,43.88 -6.94,45.72 -7.68,47.56 -8.68,48.67 -9.68,49.79 -9.72,50.00 -9.77,50.21 -9.88,50.39 -9.99,50.57 -10.15,50.71 -10.31,50.84 -10.51,50.92 -10.71,51.00 -10.92,51.01 -11.13,51.02 -11.34,50.97 -11.54,50.91 -11.72,50.79 -11.89,50.67 -12.02,50.50 -12.15,50.33 -12.22,50.13 -12.28,49.93 -12.28,49.71 -12.28,49.50 -12.21,49.30 -12.15,49.10 -12.02,48.93 -11.89,48.76 -11.71,48.64 -11.54,48.52 -11.33,48.47 -11.13,48.41 -10.91,48.42 -10.70,48.44 -10.50,48.51 -10.31,48.59 -10.15,48.73 -9.98,48.87 -9.87,49.05 -9.77,49.23 -9.72,49.44 -9.68,49.65 -9.70,49.86 -9.72,50.07 -9.81,50.26 -9.90,50.46 -10.05,50.61 -10.19,50.77 -10.38,50.86 -10.57,50.96 -10.78,51.00 -10.99,51.03 -11.20,51.00 -11.41,50.96 -11.60,50.86 -11.78,50.76 -11.93,50.61 -12.08,50.45 -12.16,50.26 -12.25,50.07 -12.28,49.85 -12.30,49.64 -12.30,49.64 -12.30,49.64 -12.56,46.78 -12.82,43.92 -12.58,42.87 -12.33,41.81 -11.83,40.32 -11.32,38.83 -10.87,37.52 -10.41,36.21 -9.91,34.16 -9.42,32.11 -8.92,29.99 -8.43,27.86 -7.92,25.48 -7.42,23.09 -6.93,20.95 -6.43,18.81 -5.95,16.39 -5.47,13.97 -5.05,11.66 -4.63,9.35 -4.30,6.95 -3.98,4.55 -2.68,2.12 -1.38,-0.30 -1.32,-0.46 -1.26,-0.62 -1.17,-0.77 -1.08,-0.91 -0.95,-1.03 -0.83,-1.14 -0.68,-1.23 -0.53,-1.31 -0.36,-1.35 -0.20,-1.40 -0.03,-1.40 0.13,-1.41 0.30,-1.37 0.47,-1.33 0.62,-1.26 0.77,-1.18 0.90,-1.07 1.03,-0.96 1.13,-0.82 1.23,-0.68 1.30,-0.52 1.36,-0.37 1.39,-0.20 1.41,-0.03 1.39,0.13 1.38,0.30 1.38,0.30 L 1.38,0.30 Z"/></g><g transform="translate(20.009105633979146 112.09287746658734) rotate(0 18.516845422861422 -2.0018211267958463)" stroke="none"><path fill="#FFFFFF" d="M -1.10,-1.38 Q -1.10,-1.38 -0.08,-3.10 0.94,-4.83 2.88,-5.58 4.82,-6.34 6.58,-6.63 8.35,-6.92 9.67,-7.03 10.98,-7.13 12.43,-7.17 13.88,-7.21 15.07,-7.23 16.25,-7.25 17.63,-7.25 19.01,-7.25 20.76,-6.92 22.52,-6.59 23.91,-6.10 25.29,-5.61 27.00,-5.32 28.70,-5.03 30.92,-4.66 33.14,-4.29 34.73,-3.80 36.33,-3.31 36.54,-3.28 36.75,-3.24 36.93,-3.14 37.12,-3.04 37.27,-2.89 37.41,-2.73 37.50,-2.54 37.59,-2.35 37.61,-2.13 37.63,-1.92 37.59,-1.72 37.54,-1.51 37.43,-1.33 37.32,-1.15 37.16,-1.01 36.99,-0.87 36.79,-0.79 36.60,-0.72 36.38,-0.71 36.17,-0.70 35.97,-0.75 35.76,-0.81 35.59,-0.93 35.41,-1.05 35.29,-1.22 35.16,-1.39 35.09,-1.59 35.02,-1.79 35.03,-2.01 35.03,-2.22 35.10,-2.42 35.16,-2.62 35.29,-2.79 35.42,-2.96 35.60,-3.08 35.78,-3.20 35.98,-3.25 36.19,-3.31 36.40,-3.29 36.61,-3.28 36.81,-3.20 37.00,-3.12 37.17,-2.98 37.33,-2.85 37.44,-2.66 37.54,-2.48 37.59,-2.27 37.63,-2.06 37.61,-1.85 37.58,-1.64 37.49,-1.45 37.40,-1.26 37.26,-1.10 37.11,-0.95 36.92,-0.85 36.73,-0.75 36.52,-0.72 36.31,-0.69 36.31,-0.69 36.31,-0.69 34.70,-0.21 33.09,0.25 31.77,0.42 30.44,0.60 29.36,0.70 28.28,0.80 27.11,0.79 25.93,0.78 23.60,0.26 21.26,-0.25 20.13,-0.49 19.01,-0.73 17.68,-0.72 16.34,-0.70 15.20,-0.69 14.06,-0.67 12.76,-0.64 11.46,-0.61 10.36,-0.53 9.25,-0.46 7.03,-0.11 4.81,0.22 2.96,0.80 1.10,1.38 0.92,1.49 0.74,1.60 0.54,1.67 0.33,1.73 0.12,1.75 -0.08,1.76 -0.29,1.73 -0.51,1.69 -0.70,1.61 -0.90,1.52 -1.07,1.39 -1.24,1.26 -1.37,1.09 -1.50,0.93 -1.59,0.73 -1.68,0.54 -1.72,0.33 -1.76,0.12 -1.75,-0.08 -1.74,-0.30 -1.68,-0.50 -1.62,-0.71 -1.51,-0.89 -1.40,-1.07 -1.25,-1.23 -1.10,-1.38 -1.10,-1.38 L -1.10,-1.38 Z"/></g><g transform="translate(87.07011338163946 83.06647112804777) rotate(0 9.508650352280199 0)" stroke="none"><path fill="#FFFFFF" d="M 0,-2.36 Q 0,-2.36 2.58,-2.64 5.17,-2.92 6.85,-2.92 8.53,-2.92 9.82,-2.91 11.10,-2.90 12.23,-2.86 13.35,-2.82 15.99,-2.06 18.64,-1.31 18.84,-1.27 19.05,-1.24 19.24,-1.14 19.43,-1.04 19.58,-0.89 19.72,-0.73 19.81,-0.54 19.90,-0.35 19.92,-0.14 19.95,0.07 19.90,0.27 19.86,0.48 19.75,0.66 19.64,0.85 19.47,0.98 19.31,1.12 19.11,1.20 18.92,1.28 18.71,1.29 18.49,1.30 18.29,1.24 18.08,1.19 17.91,1.07 17.73,0.95 17.60,0.78 17.47,0.61 17.41,0.41 17.34,0.21 17.34,-0.00 17.34,-0.21 17.41,-0.41 17.47,-0.61 17.60,-0.78 17.73,-0.95 17.91,-1.07 18.08,-1.19 18.29,-1.24 18.49,-1.30 18.71,-1.29 18.92,-1.28 19.12,-1.20 19.31,-1.12 19.47,-0.98 19.64,-0.84 19.75,-0.66 19.86,-0.48 19.90,-0.27 19.95,-0.07 19.92,0.14 19.90,0.35 19.81,0.54 19.72,0.73 19.58,0.89 19.43,1.04 19.24,1.14 19.05,1.24 18.84,1.27 18.63,1.31 18.64,1.31 18.64,1.31 15.99,2.06 13.35,2.82 12.23,2.86 11.10,2.90 9.82,2.91 8.53,2.92 6.85,2.92 5.17,2.92 2.58,2.64 0,2.36 -0.28,2.33 -0.56,2.29 -0.83,2.19 -1.09,2.09 -1.33,1.93 -1.56,1.77 -1.75,1.55 -1.94,1.34 -2.07,1.09 -2.21,0.83 -2.28,0.56 -2.34,0.28 -2.34,-0.00 -2.34,-0.28 -2.27,-0.56 -2.21,-0.83 -2.07,-1.09 -1.94,-1.34 -1.75,-1.55 -1.56,-1.77 -1.33,-1.93 -1.09,-2.09 -0.83,-2.19 -0.56,-2.29 -0.28,-2.33 0.00,-2.36 0.00,-2.36 L 0,-2.36 Z"/></g><g transform="translate(81.06465000125198 99.08104014241442) rotate(0 10.509560915678094 0.5004552816989758)" stroke="none"><path fill="#FFFFFF" d="M 0,-2.34 Q 0,-2.34 2.58,-2.71 5.17,-3.07 6.85,-3.07 8.53,-3.07 9.82,-3.07 11.10,-3.07 12.23,-3.07 13.35,-3.07 14.73,-2.97 16.10,-2.86 18.68,-1.60 21.26,-0.34 21.43,-0.22 21.60,-0.09 21.72,0.07 21.85,0.25 21.91,0.45 21.97,0.66 21.96,0.87 21.95,1.08 21.87,1.28 21.80,1.48 21.66,1.64 21.53,1.80 21.34,1.92 21.16,2.03 20.96,2.08 20.75,2.13 20.54,2.11 20.33,2.09 20.13,2.00 19.94,1.91 19.78,1.77 19.63,1.62 19.52,1.44 19.42,1.25 19.39,1.04 19.35,0.83 19.38,0.62 19.41,0.41 19.51,0.22 19.61,0.03 19.76,-0.10 19.91,-0.25 20.10,-0.34 20.29,-0.44 20.50,-0.46 20.72,-0.49 20.92,-0.44 21.13,-0.40 21.31,-0.29 21.50,-0.19 21.64,-0.03 21.78,0.12 21.86,0.32 21.94,0.52 21.95,0.73 21.97,0.94 21.91,1.15 21.86,1.35 21.74,1.53 21.63,1.71 21.46,1.84 21.29,1.97 21.09,2.04 20.89,2.11 20.68,2.11 20.47,2.11 20.26,2.05 20.06,1.98 20.06,1.98 20.06,1.98 18.08,2.42 16.10,2.86 14.73,2.97 13.35,3.07 12.23,3.07 11.10,3.07 9.82,3.07 8.53,3.07 6.85,3.07 5.17,3.07 2.58,2.71 0,2.34 -0.28,2.31 -0.56,2.28 -0.82,2.18 -1.09,2.08 -1.32,1.91 -1.55,1.75 -1.74,1.54 -1.93,1.33 -2.06,1.08 -2.19,0.83 -2.26,0.55 -2.33,0.28 -2.33,-0.00 -2.33,-0.28 -2.26,-0.55 -2.19,-0.83 -2.06,-1.08 -1.93,-1.33 -1.74,-1.54 -1.55,-1.75 -1.32,-1.91 -1.09,-2.08 -0.82,-2.18 -0.56,-2.28 -0.28,-2.31 0.00,-2.34 0.00,-2.34 L 0,-2.34 Z"/></g><g transform="translate(164.1402267632789 17.006373943785405) rotate(0 22.520487676453087 18.01639014116249)" stroke="none"><path fill="#FFFFFF" d="M 1.57,-0.90 Q 1.57,-0.90 3.37,0.74 5.17,2.39 6.08,4.61 6.99,6.83 7.68,9.28 8.38,11.73 8.95,14.21 9.53,16.68 10.27,18.64 11.02,20.61 11.70,23.12 12.38,25.64 12.94,27.81 13.50,29.98 14.03,32.06 14.56,34.13 15.02,35.43 15.48,36.72 16.51,38.54 17.53,40.35 17.47,39.04 17.40,37.72 18.01,36.38 18.62,35.04 19.92,32.80 21.21,30.57 22.99,28.06 24.77,25.56 26.26,22.96 27.76,20.36 29.27,17.53 30.78,14.69 32.37,12.20 33.96,9.71 35.14,7.64 36.33,5.56 37.10,3.92 37.86,2.28 38.54,0.95 39.21,-0.38 40.09,-2.24 40.96,-4.11 42.31,-5.65 43.65,-7.20 43.78,-7.37 43.91,-7.54 44.09,-7.66 44.26,-7.77 44.47,-7.83 44.67,-7.89 44.89,-7.87 45.10,-7.86 45.29,-7.78 45.49,-7.70 45.65,-7.56 45.81,-7.42 45.92,-7.24 46.03,-7.06 46.08,-6.85 46.12,-6.64 46.10,-6.43 46.07,-6.22 45.98,-6.03 45.89,-5.84 45.75,-5.68 45.60,-5.53 45.41,-5.43 45.22,-5.33 45.01,-5.30 44.80,-5.27 44.59,-5.30 44.38,-5.34 44.20,-5.44 44.01,-5.54 43.86,-5.69 43.72,-5.85 43.63,-6.04 43.54,-6.23 43.52,-6.45 43.50,-6.66 43.55,-6.86 43.59,-7.07 43.70,-7.25 43.81,-7.43 43.98,-7.57 44.14,-7.71 44.34,-7.79 44.53,-7.86 44.75,-7.87 44.96,-7.88 45.16,-7.83 45.37,-7.77 45.54,-7.65 45.72,-7.53 45.85,-7.36 45.97,-7.19 46.04,-6.99 46.11,-6.79 46.11,-6.57 46.10,-6.36 46.04,-6.16 45.97,-5.96 45.97,-5.96 45.97,-5.96 45.79,-3.27 45.61,-0.59 45.30,0.86 45.00,2.32 44.41,3.65 43.82,4.98 42.97,6.90 42.13,8.83 40.88,11.08 39.62,13.32 38.18,15.59 36.73,17.86 35.17,20.80 33.61,23.75 31.94,26.62 30.28,29.49 28.67,31.72 27.07,33.96 25.82,36.11 24.57,38.26 23.26,40.47 21.95,42.69 20.85,43.65 19.74,44.61 18.05,45.27 16.37,45.93 14.85,45.60 13.33,45.27 12.15,43.71 10.97,42.16 10.00,40.60 9.03,39.04 8.47,37.43 7.91,35.82 7.38,33.76 6.86,31.70 6.31,29.55 5.76,27.41 5.18,25.20 4.59,22.99 3.72,20.60 2.85,18.21 2.32,15.86 1.80,13.51 1.26,11.38 0.71,9.25 0.07,7.46 -0.57,5.66 -1.07,3.28 -1.57,0.90 -1.66,0.69 -1.74,0.49 -1.77,0.28 -1.81,0.06 -1.79,-0.15 -1.77,-0.37 -1.70,-0.57 -1.63,-0.78 -1.51,-0.96 -1.40,-1.15 -1.24,-1.30 -1.08,-1.45 -0.89,-1.56 -0.70,-1.67 -0.49,-1.73 -0.28,-1.79 -0.06,-1.80 0.15,-1.80 0.36,-1.76 0.58,-1.71 0.77,-1.62 0.97,-1.52 1.14,-1.39 1.31,-1.25 1.44,-1.07 1.57,-0.90 1.57,-0.90 L 1.57,-0.90 Z"/></g><g transform="translate(142.12019436852475 68.05281267707906) rotate(0 49.54507288819681 5.004552816989587)" stroke="none"><path fill="#FFFFFF" d="M 0.52,-1.58 Q 0.52,-1.58 3.25,-1.13 5.98,-0.69 8.45,-0.11 10.91,0.45 13.25,0.64 15.59,0.83 18.45,1.19 21.30,1.54 24.10,1.63 26.89,1.72 29.96,2.05 33.02,2.37 35.90,2.49 38.78,2.62 42.15,2.97 45.53,3.32 48.55,3.47 51.58,3.61 54.74,3.97 57.90,4.33 60.97,4.77 64.04,5.22 66.64,5.40 69.25,5.59 72.22,5.98 75.20,6.37 77.75,6.53 80.31,6.69 82.83,6.86 85.35,7.02 87.57,7.09 89.80,7.16 91.89,7.37 93.99,7.58 96.08,8.13 98.17,8.69 98.38,8.72 98.59,8.76 98.77,8.86 98.96,8.96 99.11,9.11 99.25,9.27 99.34,9.46 99.43,9.65 99.45,9.87 99.47,10.08 99.43,10.28 99.38,10.49 99.27,10.67 99.16,10.85 99.00,10.99 98.83,11.13 98.64,11.21 98.44,11.28 98.23,11.30 98.01,11.31 97.81,11.25 97.61,11.19 97.43,11.07 97.26,10.95 97.13,10.78 97.00,10.61 96.93,10.41 96.86,10.21 96.87,10.00 96.87,9.78 96.93,9.58 97.00,9.38 97.13,9.21 97.26,9.04 97.44,8.93 97.61,8.81 97.82,8.75 98.02,8.69 98.24,8.71 98.45,8.72 98.65,8.80 98.84,8.88 99.00,9.02 99.17,9.15 99.27,9.34 99.38,9.52 99.43,9.73 99.47,9.93 99.45,10.15 99.43,10.36 99.34,10.55 99.25,10.74 99.10,10.90 98.95,11.05 98.76,11.15 98.58,11.25 98.37,11.28 98.16,11.31 98.16,11.31 98.16,11.31 96.06,11.85 93.96,12.39 91.84,12.58 89.73,12.76 87.46,12.78 85.20,12.79 82.58,12.82 79.95,12.85 77.18,12.70 74.41,12.55 71.62,12.21 68.82,11.87 65.98,11.69 63.13,11.50 60.15,11.07 57.17,10.64 54.23,10.29 51.28,9.95 48.06,9.79 44.85,9.64 41.65,9.28 38.46,8.93 35.36,8.75 32.27,8.56 29.40,8.16 26.53,7.77 23.50,7.51 20.47,7.26 17.73,6.80 14.99,6.34 12.29,5.97 9.59,5.61 6.98,4.88 4.37,4.14 1.92,2.86 -0.52,1.58 -0.70,1.49 -0.89,1.41 -1.04,1.28 -1.20,1.15 -1.32,0.99 -1.44,0.83 -1.52,0.64 -1.60,0.46 -1.63,0.26 -1.66,0.06 -1.65,-0.13 -1.63,-0.33 -1.57,-0.52 -1.50,-0.71 -1.40,-0.88 -1.29,-1.05 -1.14,-1.19 -1.00,-1.33 -0.82,-1.43 -0.65,-1.53 -0.46,-1.59 -0.26,-1.64 -0.06,-1.65 0.13,-1.66 0.33,-1.62 0.52,-1.58 0.52,-1.58 L 0.52,-1.58 Z"/></g><g transform="translate(178.1529746508497 94.07648732542489) rotate(0 8.507739788882304 10.009105633979118)" stroke="none"><path fill="#FFFFFF" d="M 1.73,0 Q 1.73,0 2.21,2.01 2.68,4.02 2.73,5.74 2.77,7.46 2.80,9.06 2.83,10.65 2.84,11.90 2.86,13.16 2.87,14.55 2.88,15.95 2.88,17.12 2.88,18.29 2.89,19.98 2.89,21.67 2.89,22.35 2.88,23.02 2.84,23.37 2.80,23.71 2.68,24.04 2.55,24.36 2.36,24.65 2.16,24.94 1.90,25.17 1.64,25.40 1.33,25.56 1.02,25.72 0.68,25.81 0.34,25.89 -0.00,25.89 -0.34,25.89 -0.68,25.81 -1.02,25.72 -1.33,25.56 -1.64,25.40 -1.90,25.17 -2.16,24.94 -2.36,24.65 -2.55,24.36 -2.68,24.04 -2.80,23.71 -2.84,23.37 -2.88,23.02 -3.26,20.98 -3.64,18.94 -3.70,17.51 -3.76,16.08 -3.78,14.62 -3.81,13.16 -3.81,11.68 -3.82,10.19 -3.83,8.70 -3.83,7.21 -3.82,5.71 -3.81,4.21 -3.81,2.71 -3.81,1.21 -3.80,-0.00 -3.80,-1.23 -3.47,-2.67 -3.13,-4.10 -2.67,-5.30 -2.20,-6.49 -1.71,-7.58 -1.22,-8.66 -0.63,-9.58 -0.03,-10.50 1.11,-11.83 2.26,-13.16 3.19,-13.71 4.12,-14.25 5.30,-14.46 6.49,-14.68 8.35,-14.65 10.21,-14.63 11.57,-13.80 12.93,-12.97 14.27,-11.36 15.60,-9.75 16.52,-7.85 17.44,-5.95 17.62,-4.17 17.80,-2.38 17.82,-0.78 17.85,0.82 17.45,2.01 17.06,3.20 15.95,4.66 14.85,6.11 13.37,7.21 11.89,8.31 10.73,9.00 9.57,9.69 8.50,10.25 7.43,10.81 7.25,9.56 7.07,8.31 8.52,9.24 9.96,10.18 11.62,11.62 13.28,13.07 14.80,14.55 16.31,16.04 17.34,17.21 18.37,18.39 18.86,19.73 19.36,21.07 19.88,22.73 20.40,24.39 20.49,25.46 20.58,26.53 19.31,29.70 18.05,32.86 17.87,32.97 17.69,33.09 17.48,33.13 17.27,33.18 17.06,33.16 16.85,33.14 16.66,33.05 16.46,32.96 16.31,32.82 16.15,32.67 16.05,32.49 15.95,32.30 15.91,32.09 15.88,31.88 15.91,31.67 15.94,31.46 16.04,31.27 16.14,31.08 16.29,30.94 16.44,30.79 16.64,30.70 16.83,30.61 17.04,30.58 17.25,30.56 17.46,30.60 17.67,30.65 17.85,30.75 18.03,30.86 18.17,31.02 18.31,31.18 18.39,31.38 18.47,31.58 18.48,31.79 18.50,32.00 18.44,32.21 18.39,32.41 18.27,32.59 18.15,32.76 17.98,32.89 17.81,33.02 17.61,33.09 17.41,33.16 17.20,33.17 16.99,33.17 16.79,33.10 16.58,33.03 16.41,32.91 16.24,32.78 16.12,32.61 16.00,32.43 15.94,32.23 15.89,32.02 15.90,31.81 15.90,31.60 15.98,31.40 16.06,31.20 16.20,31.04 16.33,30.88 16.33,30.88 16.33,30.88 15.78,28.92 15.24,26.96 15.06,25.83 14.89,24.71 13.97,22.82 13.04,20.93 12.05,19.66 11.06,18.39 9.73,17.09 8.40,15.80 7.38,15.13 6.36,14.45 5.18,13.78 4.00,13.11 3.26,12.25 2.52,11.40 2.47,9.89 2.42,8.37 4.13,6.69 5.85,5.01 6.88,4.43 7.90,3.86 9.21,3.09 10.52,2.33 11.34,1.49 12.15,0.66 12.13,-0.73 12.10,-2.12 12.02,-3.33 11.93,-4.54 11.40,-5.58 10.86,-6.62 10.08,-7.98 9.31,-9.33 7.79,-9.29 6.27,-9.25 5.43,-8.31 4.60,-7.38 3.80,-5.91 2.99,-4.44 2.40,-2.81 1.80,-1.18 1.80,0.01 1.81,1.21 1.81,2.71 1.81,4.20 1.83,5.70 1.84,7.19 1.84,8.67 1.85,10.16 1.86,11.61 1.87,13.07 1.89,14.46 1.91,15.86 1.93,17.69 1.95,19.52 2.42,21.27 2.88,23.02 2.84,23.37 2.80,23.71 2.68,24.04 2.55,24.36 2.36,24.65 2.16,24.94 1.90,25.17 1.64,25.40 1.33,25.56 1.02,25.72 0.68,25.81 0.34,25.89 0.00,25.89 -0.34,25.89 -0.68,25.81 -1.02,25.72 -1.33,25.56 -1.64,25.40 -1.90,25.17 -2.16,24.94 -2.36,24.65 -2.55,24.36 -2.68,24.04 -2.80,23.71 -2.84,23.37 -2.88,23.02 -2.89,22.35 -2.89,21.67 -2.89,19.98 -2.88,18.29 -2.88,17.12 -2.88,15.95 -2.87,14.55 -2.86,13.16 -2.84,11.90 -2.83,10.65 -2.80,9.06 -2.77,7.46 -2.73,5.74 -2.68,4.02 -2.21,2.01 -1.73,0 -1.70,-0.20 -1.68,-0.41 -1.60,-0.61 -1.53,-0.80 -1.41,-0.97 -1.29,-1.14 -1.14,-1.28 -0.98,-1.42 -0.79,-1.52 -0.61,-1.62 -0.41,-1.67 -0.20,-1.72 0.00,-1.72 0.20,-1.72 0.41,-1.67 0.61,-1.62 0.79,-1.52 0.98,-1.42 1.14,-1.28 1.29,-1.14 1.41,-0.97 1.53,-0.80 1.60,-0.60 1.68,-0.41 1.70,-0.20 1.73,0.00 1.73,0.00 L 1.73,0 Z"/></g></svg>